<svg width="22" height="22" viewBox="0 0 22 22" fill="none" xmlns="http://www.w3.org/2000/svg">
<path d="M11.6875 8.25C11.6875 7.8703 11.3797 7.5625 11 7.5625C10.6203 7.5625 10.3125 7.8703 10.3125 8.25V10.3125H8.25C7.8703 10.3125 7.5625 10.6203 7.5625 11C7.5625 11.3797 7.8703 11.6875 8.25 11.6875H10.3125V13.75C10.3125 14.1297 10.6203 14.4375 11 14.4375C11.3797 14.4375 11.6875 14.1297 11.6875 13.75V11.6875H13.75C14.1297 11.6875 14.4375 11.3797 14.4375 11C14.4375 10.6203 14.1297 10.3125 13.75 10.3125H11.6875V8.25Z" fill="#3C3744"/>
<path d="M2.75 2.75C2.75 1.23122 3.98122 0 5.5 0H16.5C18.0188 0 19.25 1.23122 19.25 2.75V19.25C19.25 20.7688 18.0188 22 16.5 22H5.5C3.98122 22 2.75 20.7688 2.75 19.25V2.75ZM16.5 1.375H5.5C4.74061 1.375 4.125 1.99061 4.125 2.75V19.25C4.125 20.0094 4.74061 20.625 5.5 20.625H16.5C17.2594 20.625 17.875 20.0094 17.875 19.25V2.75C17.875 1.99061 17.2594 1.375 16.5 1.375Z" fill="#3C3744"/>
</svg>
