<svg width="15" height="15" viewBox="0 0 15 15" fill="none" xmlns="http://www.w3.org/2000/svg">
<path d="M6.83838 0.623779C6.44774 0.623779 6.11134 0.920599 6.06323 1.30859L5.95947 2.13745C5.06737 2.39502 4.27707 2.85851 3.62793 3.48511L2.85767 3.1604C2.4972 3.00814 2.07255 3.1512 1.87744 3.48877L1.21582 4.63501C1.02086 4.97232 1.1093 5.41234 1.41968 5.64819L2.08374 6.15112C1.97475 6.58779 1.875 7.03001 1.875 7.5C1.875 7.96999 1.97472 8.41244 2.08374 8.84888L1.4209 9.35059C1.10937 9.58617 1.0204 10.0262 1.2146 10.3638L1.21582 10.365L1.87744 11.5112C2.07255 11.8488 2.4972 11.9919 2.85767 11.8396L3.62915 11.5149C4.27841 12.1414 5.06849 12.6051 5.96069 12.8625L6.06323 13.6914C6.11134 14.0794 6.44774 14.3762 6.83838 14.3762H8.16162C8.55226 14.3762 8.88866 14.0794 8.93677 13.6914L9.04053 12.8625C9.93263 12.605 10.7229 12.1415 11.3721 11.5149L12.1436 11.8396C12.503 11.9914 12.9289 11.8487 13.1238 11.51L13.7854 10.365C13.9807 10.0272 13.8915 9.58776 13.5815 9.35181L13.5803 9.35059L12.9163 8.84888C13.0253 8.4124 13.125 7.96999 13.125 7.5C13.125 7.03001 13.0253 6.58756 12.9163 6.15112L13.5791 5.64941C13.8906 5.41383 13.9796 4.97377 13.7854 4.63623L13.7842 4.63501L13.1226 3.48877C12.9274 3.1512 12.5028 3.00814 12.1423 3.1604L11.3709 3.48511C10.7216 2.85857 9.93152 2.39489 9.03931 2.13745L8.93677 1.30859C8.88866 0.920599 8.55226 0.623779 8.16162 0.623779H6.83838ZM6.97632 1.56128H8.02368L8.14331 2.52441C8.15546 2.6205 8.19708 2.71047 8.26243 2.78195C8.32779 2.85342 8.41368 2.9029 8.5083 2.92358C9.46756 3.13417 10.3132 3.63846 10.9546 4.3396C11.0199 4.41119 11.1058 4.46078 11.2005 4.48155C11.2951 4.50231 11.3939 4.49324 11.4832 4.45557L12.3792 4.07715L12.9041 4.98535L12.1326 5.56885C12.0555 5.62733 11.9984 5.70824 11.9691 5.80047C11.9398 5.8927 11.9398 5.99174 11.969 6.08398C12.1105 6.53075 12.1875 7.00578 12.1875 7.5C12.1875 7.99422 12.1106 8.46836 11.969 8.91602C11.9398 9.00826 11.9398 9.1073 11.9691 9.19953C11.9984 9.29176 12.0555 9.37267 12.1326 9.43115L12.9053 10.0146L12.3804 10.9229L11.4832 10.5444C11.394 10.507 11.2955 10.4981 11.2011 10.5189C11.1067 10.5396 11.021 10.5891 10.9558 10.6604C10.3144 11.3615 9.46756 11.8658 8.5083 12.0764C8.41391 12.0973 8.32828 12.1469 8.26316 12.2184C8.19804 12.2898 8.1566 12.3797 8.14453 12.4756L8.02368 13.4387H6.97632L6.85669 12.4756C6.84454 12.3795 6.80293 12.2895 6.73757 12.2181C6.67221 12.1466 6.58632 12.0971 6.4917 12.0764C5.53244 11.8658 4.68679 11.3615 4.04541 10.6604C3.9801 10.5888 3.89421 10.5392 3.79955 10.5185C3.7049 10.4977 3.60613 10.5068 3.51685 10.5444L2.62085 10.9229L2.09595 10.0146L2.86743 9.43115C2.94453 9.37267 3.00164 9.29176 3.03093 9.19953C3.06022 9.1073 3.06024 9.00826 3.03101 8.91602C2.88948 8.46925 2.8125 7.99422 2.8125 7.5C2.8125 7.00578 2.88941 6.53031 3.03101 6.08276C3.06024 5.99052 3.06022 5.89148 3.03093 5.79925C3.00164 5.70702 2.94453 5.62611 2.86743 5.56763L2.09717 4.98535L2.62085 4.07715L3.51685 4.45557C3.60598 4.49296 3.70449 4.50189 3.79889 4.48113C3.89329 4.46037 3.97897 4.41094 4.04419 4.3396C4.68557 3.63846 5.53244 3.13417 6.4917 2.92358C6.58609 2.90268 6.67172 2.8531 6.73684 2.78164C6.80196 2.71018 6.8434 2.62034 6.85547 2.52441L6.97632 1.56128ZM7.5 5C6.70573 5 6.05067 5.31473 5.62622 5.79224C5.20177 6.26974 5 6.88802 5 7.5C5 8.11198 5.20177 8.73026 5.62622 9.20776C6.05067 9.68527 6.70573 10 7.5 10C8.29427 10 8.94933 9.68527 9.37378 9.20776C9.79823 8.73026 10 8.11198 10 7.5C10 6.88802 9.79823 6.26974 9.37378 5.79224C8.94933 5.31473 8.29427 5 7.5 5ZM7.5 5.9375C8.0599 5.9375 8.42046 6.13058 8.6731 6.41479C8.92573 6.69901 9.0625 7.09635 9.0625 7.5C9.0625 7.90365 8.92573 8.30099 8.6731 8.58521C8.42046 8.86942 8.0599 9.0625 7.5 9.0625C6.94011 9.0625 6.57954 8.86942 6.32691 8.58521C6.07427 8.30099 5.9375 7.90365 5.9375 7.5C5.9375 7.09635 6.07427 6.69901 6.32691 6.41479C6.57954 6.13058 6.94011 5.9375 7.5 5.9375Z" fill="#F5F5F5"/>
</svg>
