<svg width="25" height="23" viewBox="0 0 25 23" fill="none" xmlns="http://www.w3.org/2000/svg">
<path d="M10.9375 1.97656C9.53125 1.97656 8.39844 3.01875 8.39844 4.3125C8.39844 4.61797 8.65234 4.85156 8.98438 4.85156C9.31641 4.85156 9.57031 4.61797 9.57031 4.3125C9.57031 3.61172 10.1758 3.05469 10.9375 3.05469H14.0625C14.8242 3.05469 15.4297 3.61172 15.4297 4.3125C15.4297 4.61797 15.6836 4.85156 16.0156 4.85156C16.3477 4.85156 16.6016 4.61797 16.6016 4.3125C16.6016 3.01875 15.4688 1.97656 14.0625 1.97656H10.9375ZM4.6875 5.57031C3.28125 5.57031 2.14844 6.6125 2.14844 7.90625V10.9609C2.14844 11.1586 2.26563 11.3202 2.44141 11.4281C5.54688 13.1351 9.02344 13.9977 12.5 13.9977C15.9766 13.9977 19.4531 13.1351 22.5586 11.4281C22.7344 11.3202 22.8516 11.1586 22.8516 10.9609V7.90625C22.8516 6.6125 21.7188 5.57031 20.3125 5.57031H4.6875ZM4.6875 6.64844H20.3125C21.0742 6.64844 21.6797 7.20547 21.6797 7.90625V10.6556C15.9961 13.6744 9.00391 13.6744 3.32031 10.6556V7.90625C3.32031 7.20547 3.92578 6.64844 4.6875 6.64844ZM2.73438 13.1172C2.40234 13.1172 2.14844 13.3508 2.14844 13.6562V18.6875C2.14844 19.9813 3.28125 21.0234 4.6875 21.0234H20.3125C21.7188 21.0234 22.8516 19.9813 22.8516 18.6875V13.6562C22.8516 13.3508 22.5977 13.1172 22.2656 13.1172C21.9336 13.1172 21.6797 13.3508 21.6797 13.6562V18.6875C21.6797 19.3883 21.0742 19.9453 20.3125 19.9453H4.6875C3.92578 19.9453 3.32031 19.3883 3.32031 18.6875V13.6562C3.32031 13.3508 3.06641 13.1172 2.73438 13.1172Z" fill="#3C3744"/>
</svg>
